<?xml version="1.0" standalone="no"?>
<!DOCTYPE svg PUBLIC "-//W3C//DTD SVG 20010904//EN"
 "http://www.w3.org/TR/2001/REC-SVG-20010904/DTD/svg10.dtd">
<svg version="1.0" xmlns="http://www.w3.org/2000/svg"
 width="700.000000pt" height="700.000000pt" viewBox="0 0 700.000000 700.000000"
 preserveAspectRatio="xMidYMid meet">
<metadata>
Created by potrace 1.11, written by Peter Selinger 2001-2013
</metadata>
<g transform="translate(0.000000,700.000000) scale(0.100000,-0.100000)"
fill="#000000" stroke="none">
<path d="M2750 6229 c-116 -30 -186 -75 -261 -169 -71 -88 -102 -178 -101
-294 0 -140 47 -252 140 -337 95 -87 189 -121 327 -120 150 1 273 63 361 183
125 169 113 432 -26 601 -41 50 -160 116 -245 135 -84 20 -120 20 -195 1z"/>
<path d="M4200 6237 c-183 -47 -296 -116 -367 -226 -78 -122 -90 -308 -27
-448 18 -39 76 -117 112 -150 35 -31 126 -78 182 -93 46 -13 181 -16 228 -5
15 3 38 7 52 10 88 17 202 109 254 204 65 120 84 283 47 402 -33 104 -120 210
-210 257 -87 46 -203 66 -271 49z"/>
<path d="M3328 4925 c-1 -1 -39 -6 -82 -10 -43 -4 -88 -9 -100 -11 -12 -2 -41
-6 -66 -9 -25 -3 -67 -10 -95 -15 -27 -5 -66 -12 -85 -15 -112 -18 -405 -110
-523 -164 -37 -17 -70 -31 -74 -31 -3 0 -56 -28 -117 -61 -401 -222 -681 -505
-850 -859 -70 -148 -131 -326 -151 -440 -3 -19 -8 -42 -10 -50 -2 -8 -7 -37
-10 -65 -4 -27 -11 -77 -15 -110 -9 -63 -5 -495 4 -555 75 -469 237 -800 541
-1106 49 -50 117 -113 150 -141 57 -47 267 -193 279 -193 3 0 27 -13 53 -28
136 -80 422 -189 596 -227 10 -2 26 -6 35 -9 17 -5 40 -10 116 -21 21 -4 48
-9 60 -11 11 -2 41 -7 66 -9 25 -3 61 -8 80 -10 253 -31 650 -22 900 21 52 9
109 18 125 20 17 2 44 9 61 14 17 6 40 12 50 14 84 17 269 78 374 124 260 114
457 248 661 451 236 237 391 496 481 806 16 55 31 116 34 135 3 19 7 43 10 52
8 29 12 55 19 125 4 37 8 79 11 93 5 33 5 338 0 370 -3 14 -7 61 -11 105 -4
44 -8 82 -10 85 -2 3 -6 26 -10 50 -23 156 -83 344 -165 516 -227 479 -659
851 -1193 1029 -73 24 -143 46 -157 49 -14 3 -45 10 -70 16 -68 17 -243 49
-308 56 -31 3 -73 8 -92 11 -41 5 -506 13 -512 8z m359 -770 c21 -3 52 -8 68
-10 17 -2 53 -9 80 -15 28 -6 59 -13 69 -16 89 -18 362 -138 396 -174 3 -3 34
-26 70 -52 111 -79 238 -218 317 -348 64 -106 140 -299 157 -401 3 -19 8 -47
12 -64 12 -66 21 -205 18 -306 -2 -93 -28 -291 -41 -311 -2 -5 -6 -16 -8 -25
-2 -10 -15 -52 -30 -93 -124 -343 -431 -639 -795 -764 -167 -57 -304 -75 -535
-72 -137 2 -204 8 -281 24 -105 23 -208 53 -259 76 -16 8 -46 21 -65 29 -19 8
-66 33 -105 57 -209 128 -352 280 -473 500 -39 72 -98 214 -106 255 -2 11 -11
47 -19 80 -56 222 -39 528 43 775 103 311 368 601 676 740 59 27 180 70 214
76 14 3 43 10 65 15 112 30 417 44 532 24z"/>
</g>
</svg>
