<?xml version="1.0" encoding="utf-8"?>
<!-- Generator: Adobe Illustrator 22.0.0, SVG Export Plug-In . SVG Version: 6.00 Build 0)  -->
<svg version="1.1" id="Layer_1" xmlns="http://www.w3.org/2000/svg" xmlns:xlink="http://www.w3.org/1999/xlink" x="0px" y="0px"
	 viewBox="0 0 273.6 72.6" style="enable-background:new 0 0 273.6 72.6;" xml:space="preserve">
<style type="text/css">
	.st0{fill:#374E6B;}
	.st1{fill:#C69C6D;}
</style>
<g>
	<g>
		<path class="st0" d="M34,30.4v6.1h14.2c0.3,0,0.6-0.1,0.7-0.2c0.2-0.2,0.3-0.4,0.4-0.8h0.5v5.7h-0.5c-0.1-0.4-0.2-0.7-0.4-0.8
			c-0.2-0.2-0.4-0.2-0.7-0.2h-20v-0.5c0.4-0.1,0.7-0.2,0.8-0.4c0.2-0.2,0.2-0.4,0.2-0.8V19.7c0-0.3-0.1-0.6-0.2-0.8
			c-0.2-0.2-0.4-0.3-0.8-0.4V18h19.7c0.3,0,0.6-0.1,0.7-0.2c0.2-0.2,0.3-0.4,0.4-0.8h0.5v5.7H49c-0.1-0.4-0.2-0.7-0.4-0.8
			c-0.2-0.2-0.4-0.2-0.7-0.2H34v5.2h9c0.3,0,0.6-0.1,0.7-0.2c0.2-0.2,0.3-0.4,0.4-0.8h0.5v5.6h-0.5c-0.1-0.4-0.2-0.6-0.4-0.8
			c-0.2-0.2-0.4-0.2-0.7-0.2h-9V30.4z"/>
		<path class="st0" d="M69.6,30.4c0.9,0.4,1.6,0.8,2,1.2c0.8,0.8,1.2,1.8,1.2,3.1c0,1.8-0.7,3.1-2,4.1c-1.2,0.9-2.8,1.3-4.9,1.3H53
			v-0.5c0.4-0.1,0.6-0.2,0.8-0.4s0.2-0.4,0.2-0.8V23.6c0-0.3-0.1-0.6-0.2-0.8c-0.2-0.2-0.4-0.3-0.8-0.4V22h12.7
			c2.2,0,3.9,0.4,4.9,1.2c1.1,0.8,1.7,2,1.7,3.5c0,0.9-0.2,1.6-0.6,2.1C71.2,29.3,70.6,29.8,69.6,30.4z M58.3,28.8h6.6
			c1,0,1.8-0.1,2.2-0.4c0.4-0.3,0.6-0.7,0.6-1.4c0-0.6-0.2-1.1-0.6-1.4s-1.2-0.4-2.2-0.4h-6.6C58.3,25.2,58.3,28.8,58.3,28.8z
			 M58.3,36.8H65c2.2,0,3.3-0.8,3.3-2.4S67.2,32,65,32h-6.7V36.8z"/>
		<path class="st0" d="M85.6,21.6c2.9,0,5.3,0.7,7.2,2.2c2.3,1.8,3.4,4.2,3.4,7.4c0,3-1.2,5.3-3.4,7.1c-1.9,1.5-4.3,2.2-7.2,2.2
			c-2.9,0-5.3-0.7-7.2-2.2C76.2,36.5,75,34.1,75,31s1.2-5.5,3.5-7.3C80.4,22.4,82.8,21.6,85.6,21.6z M85.6,25
			c-1.9,0-3.4,0.6-4.6,1.8c-1.1,1.1-1.6,2.5-1.6,4.2s0.5,3.1,1.6,4.2c1.2,1.2,2.7,1.8,4.6,1.8s3.4-0.6,4.6-1.8
			c1.1-1.1,1.6-2.5,1.6-4.1c0-1.8-0.5-3.2-1.6-4.3C89,25.6,87.5,25,85.6,25z"/>
		<path class="st0" d="M104,28.2v10.3c0,0.3,0.1,0.6,0.2,0.8c0.2,0.2,0.4,0.3,0.8,0.4v0.5h-6v-0.5c0.4-0.1,0.6-0.2,0.8-0.4
			c0.2-0.2,0.2-0.4,0.2-0.8V23.6c0-0.3-0.1-0.6-0.2-0.8c-0.2-0.2-0.4-0.3-0.8-0.4V22h7v0.5c-0.5,0.1-0.7,0.3-0.7,0.6
			c0,0.3,0.2,0.6,0.5,0.9l9.7,9.6v-10c0-0.3-0.1-0.6-0.2-0.8c-0.2-0.2-0.4-0.3-0.8-0.4V22h6v0.5c-0.4,0.1-0.7,0.3-0.8,0.4
			c-0.2,0.2-0.2,0.4-0.2,0.8v14.8c0,0.3,0.1,0.6,0.2,0.8c0.2,0.2,0.4,0.3,0.8,0.4v0.5H114v-0.5c0.5-0.1,0.7-0.3,0.7-0.6
			c0-0.1-0.1-0.3-0.2-0.5s-0.4-0.5-0.9-0.9L104,28.2z"/>
		<path class="st0" d="M134.7,32.2v6.3c0,0.3,0.1,0.6,0.2,0.8c0.2,0.2,0.4,0.3,0.8,0.4v0.4h-6.4v-0.4c0.4-0.1,0.7-0.3,0.8-0.4
			c0.2-0.2,0.2-0.4,0.2-0.8v-6.3l-5.4-7.4c-0.6-0.8-1.1-1.4-1.4-1.7c-0.4-0.3-0.8-0.5-1.3-0.6V22h8.2v0.5c-0.7,0.2-1.1,0.5-1.1,1
			c0,0.2,0.3,0.7,0.8,1.4l2.6,3.6l2.6-3.6c0.5-0.7,0.8-1.2,0.8-1.4c0-0.5-0.3-0.8-1-1V22h7.8v0.5c-0.5,0.1-0.9,0.3-1.3,0.6
			c-0.4,0.3-0.8,0.9-1.4,1.7L134.7,32.2z"/>
		<path class="st0" d="M153.8,38.4V19.7c0-0.3-0.1-0.6-0.2-0.8c-0.2-0.2-0.4-0.3-0.8-0.4V18h12.3c2.7,0,4.8,0.3,6.2,0.9
			c2.1,0.9,3.6,2.4,4.6,4.4c0.8,1.6,1.2,3.5,1.2,5.7c0,3.8-1.2,6.7-3.5,8.7c-1,0.8-2.1,1.4-3.4,1.8c-1.3,0.4-3,0.5-5,0.5h-12.3v-0.5
			c0.4-0.1,0.7-0.2,0.8-0.4C153.7,39,153.8,38.7,153.8,38.4z M158.6,36.5h6.1c1.9,0,3.4-0.3,4.4-0.8c2.1-1.1,3.1-3.3,3.1-6.6
			c0-2.4-0.6-4.2-1.7-5.5c-0.6-0.7-1.4-1.2-2.3-1.5c-0.9-0.3-2.1-0.4-3.5-0.4h-6.1V36.5z"/>
		<path class="st1" d="M190.3,21.6c2.9,0,5.3,0.7,7.2,2.2c2.3,1.8,3.4,4.2,3.4,7.4c0,3-1.2,5.3-3.4,7.1c-1.9,1.5-4.3,2.2-7.2,2.2
			s-5.3-0.7-7.2-2.2c-2.3-1.8-3.5-4.2-3.5-7.3s1.2-5.5,3.5-7.3C185.1,22.4,187.5,21.6,190.3,21.6z M190.3,25c-1.9,0-3.4,0.6-4.6,1.8
			c-1.1,1.1-1.6,2.5-1.6,4.2s0.5,3.1,1.6,4.2c1.2,1.2,2.7,1.8,4.6,1.8c1.9,0,3.4-0.6,4.6-1.8c1.1-1.1,1.6-2.5,1.6-4.1
			c0-1.8-0.5-3.2-1.6-4.3C193.7,25.6,192.2,25,190.3,25z M187.2,15.7c0.6,0,1.1,0.2,1.5,0.6s0.6,0.9,0.6,1.5s-0.2,1-0.6,1.5
			c-0.4,0.4-0.9,0.6-1.5,0.6s-1.1-0.2-1.5-0.6s-0.6-0.9-0.6-1.5s0.2-1.1,0.6-1.5S186.6,15.7,187.2,15.7z M193.7,15.7
			c0.6,0,1.1,0.2,1.5,0.6s0.6,0.9,0.6,1.5s-0.2,1.1-0.6,1.5c-0.4,0.4-0.9,0.6-1.5,0.6s-1.1-0.2-1.5-0.6s-0.6-0.9-0.6-1.5
			s0.2-1.1,0.6-1.5S193.1,15.7,193.7,15.7z"/>
		<path class="st0" d="M209.1,32.7v5.8c0,0.3,0.1,0.6,0.2,0.8c0.2,0.2,0.4,0.3,0.8,0.4v0.5h-6.4v-0.5c0.4-0.1,0.6-0.2,0.8-0.4
			s0.2-0.4,0.2-0.8V23.6c0-0.3-0.1-0.6-0.2-0.8c-0.2-0.2-0.4-0.3-0.8-0.4V22h11.9c1.5,0,2.7,0.1,3.5,0.2c0.8,0.2,1.5,0.4,2.2,0.9
			c1.3,0.9,2,2.2,2,4.2c0,1.5-0.4,2.6-1.2,3.4s-2.1,1.4-3.9,1.8l3.4,4.8c0.6,0.9,1.1,1.5,1.5,1.8s0.8,0.5,1.3,0.6v0.5h-7.6v-0.5
			c0.6-0.2,0.8-0.4,0.8-0.7c0-0.2-0.2-0.6-0.5-1.1l-3.6-5.2C213.5,32.7,209.1,32.7,209.1,32.7z M209.1,29.4h6.5c1,0,1.7-0.1,2.2-0.3
			c0.7-0.3,1-0.9,1-1.7c0-0.8-0.2-1.3-0.7-1.6c-0.5-0.3-1.3-0.5-2.5-0.5h-6.5V29.4z"/>
		<path class="st0" d="M231.9,32.7v5.8c0,0.3,0.1,0.6,0.2,0.8c0.2,0.2,0.4,0.3,0.8,0.4v0.5h-6.4v-0.5c0.4-0.1,0.6-0.2,0.8-0.4
			s0.2-0.4,0.2-0.8V23.6c0-0.3-0.1-0.6-0.2-0.8c-0.2-0.2-0.4-0.3-0.8-0.4V22h11.9c1.5,0,2.7,0.1,3.5,0.2c0.8,0.2,1.5,0.4,2.2,0.9
			c1.3,0.9,2,2.2,2,4.2c0,1.5-0.4,2.6-1.2,3.4s-2.1,1.4-3.9,1.8l3.4,4.8c0.6,0.9,1.1,1.5,1.5,1.8s0.8,0.5,1.3,0.6v0.5h-7.6v-0.5
			c0.6-0.2,0.8-0.4,0.8-0.7c0-0.2-0.2-0.6-0.5-1.1l-3.6-5.2C236.3,32.7,231.9,32.7,231.9,32.7z M231.9,29.4h6.5c1,0,1.7-0.1,2.2-0.3
			c0.7-0.3,1-0.9,1-1.7c0-0.8-0.2-1.3-0.7-1.6c-0.5-0.3-1.3-0.5-2.5-0.5h-6.5V29.4z"/>
	</g>
</g>
<g>
	<path class="st1" d="M54.1,50.1h2.3c0.3,0,0.6,0,0.9,0.1c0.3,0.1,0.6,0.2,0.8,0.3s0.4,0.4,0.6,0.6c0.1,0.3,0.2,0.6,0.2,1
		s-0.1,0.8-0.4,1.1c-0.2,0.3-0.6,0.5-1,0.6l0,0c0.5,0.1,0.9,0.3,1.2,0.6s0.5,0.8,0.5,1.3c0,0.3-0.1,0.6-0.2,0.9
		c-0.1,0.3-0.3,0.5-0.6,0.7c-0.2,0.2-0.5,0.3-0.9,0.4c-0.4,0.1-0.8,0.2-1.2,0.2H54v-7.8H54.1z M54.8,53.5h1.6c0.2,0,0.4,0,0.6-0.1
		c0.2,0,0.4-0.1,0.5-0.2c0.2-0.1,0.3-0.2,0.4-0.4c0.1-0.2,0.1-0.4,0.1-0.6c0-0.2,0-0.5-0.1-0.6c-0.1-0.2-0.2-0.3-0.4-0.4
		S57.1,51,56.9,51c-0.2,0-0.5-0.1-0.7-0.1h-1.4C54.8,50.9,54.8,53.5,54.8,53.5z M54.8,57.1h1.5c0.3,0,0.6,0,0.8-0.1
		c0.3-0.1,0.5-0.1,0.7-0.3c0.2-0.1,0.3-0.3,0.5-0.5c0.1-0.2,0.2-0.4,0.2-0.7c0-0.5-0.2-0.9-0.5-1.1c-0.3-0.3-0.8-0.4-1.5-0.4h-1.6
		v3.1H54.8z"/>
	<path class="st1" d="M66.1,55.1c0,0.1,0,0.1,0,0.2c0,0.1,0,0.1,0,0.2h-4.2c0,0.3,0.1,0.5,0.2,0.7s0.2,0.4,0.4,0.6
		c0.2,0.2,0.4,0.3,0.6,0.4c0.2,0.1,0.5,0.1,0.7,0.1c0.4,0,0.7-0.1,1-0.3s0.5-0.4,0.6-0.6l0.6,0.4c-0.3,0.4-0.6,0.7-1,0.8
		c-0.4,0.2-0.8,0.3-1.2,0.3c-0.4,0-0.7-0.1-1.1-0.2c-0.3-0.1-0.6-0.3-0.8-0.6c-0.2-0.2-0.4-0.5-0.6-0.9c-0.1-0.3-0.2-0.7-0.2-1.1
		c0-0.4,0.1-0.7,0.2-1.1c0.1-0.3,0.3-0.6,0.5-0.9c0.2-0.2,0.5-0.4,0.8-0.6c0.3-0.1,0.7-0.2,1-0.2c0.4,0,0.8,0.1,1.1,0.2
		c0.3,0.1,0.6,0.3,0.8,0.5c0.2,0.2,0.4,0.5,0.5,0.8C66.1,54.4,66.1,54.8,66.1,55.1z M65.4,54.9c0-0.5-0.2-0.9-0.5-1.2
		s-0.7-0.5-1.2-0.5c-0.2,0-0.5,0-0.7,0.1s-0.4,0.2-0.6,0.4c-0.2,0.2-0.3,0.3-0.4,0.5c-0.1,0.2-0.1,0.4-0.2,0.6h3.6V54.9z"/>
	<path class="st1" d="M71,53.9c-0.1-0.2-0.3-0.4-0.5-0.5s-0.5-0.2-0.8-0.2c-0.1,0-0.3,0-0.4,0s-0.2,0.1-0.3,0.1
		c-0.1,0.1-0.2,0.1-0.2,0.3c-0.1,0.1-0.1,0.2-0.1,0.4s0.1,0.4,0.3,0.6c0.2,0.1,0.5,0.2,0.9,0.3c0.6,0.1,1,0.3,1.3,0.5s0.4,0.6,0.4,1
		c0,0.3-0.1,0.5-0.2,0.7s-0.3,0.4-0.4,0.5c-0.2,0.1-0.4,0.2-0.6,0.3S69.9,58,69.7,58c-0.4,0-0.8-0.1-1.1-0.2
		c-0.4-0.2-0.7-0.4-0.9-0.8l0.6-0.4c0.1,0.2,0.3,0.4,0.6,0.6c0.3,0.2,0.5,0.2,0.8,0.2c0.2,0,0.3,0,0.5,0c0.1,0,0.3-0.1,0.4-0.2
		c0.1-0.1,0.2-0.2,0.3-0.3c0.1-0.1,0.1-0.3,0.1-0.4c0-0.3-0.1-0.5-0.4-0.6s-0.6-0.3-1.1-0.4c-0.2,0-0.3-0.1-0.5-0.1
		c-0.2-0.1-0.3-0.1-0.5-0.2c-0.1-0.1-0.3-0.2-0.4-0.4S68,54.4,68,54.2c0-0.3,0.1-0.5,0.2-0.7s0.2-0.3,0.4-0.5
		c0.2-0.1,0.4-0.2,0.6-0.3s0.4-0.1,0.7-0.1c0.4,0,0.7,0.1,1,0.2c0.3,0.2,0.6,0.4,0.8,0.7L71,53.9z"/>
	<path class="st1" d="M74.4,60.4h-0.7v-7.7h0.7v0.9l0,0c0.2-0.3,0.5-0.6,0.8-0.8c0.4-0.2,0.7-0.3,1.1-0.3s0.8,0.1,1.1,0.2
		c0.3,0.1,0.6,0.3,0.8,0.6c0.2,0.2,0.4,0.5,0.5,0.9c0.1,0.3,0.2,0.7,0.2,1.1c0,0.4-0.1,0.7-0.2,1.1c-0.1,0.3-0.3,0.6-0.5,0.9
		c-0.2,0.2-0.5,0.4-0.8,0.6c-0.3,0.1-0.7,0.2-1.1,0.2s-0.7-0.1-1.1-0.3s-0.6-0.4-0.8-0.7l0,0V60.4z M78.2,55.3c0-0.3,0-0.6-0.1-0.8
		c-0.1-0.3-0.2-0.5-0.4-0.7c-0.2-0.2-0.4-0.3-0.6-0.4c-0.2-0.1-0.5-0.2-0.8-0.2s-0.5,0.1-0.8,0.2c-0.2,0.1-0.4,0.3-0.6,0.4
		c-0.2,0.2-0.3,0.4-0.4,0.7s-0.1,0.5-0.1,0.8s0,0.6,0.1,0.8c0.1,0.3,0.2,0.5,0.4,0.6c0.2,0.2,0.4,0.3,0.6,0.4
		c0.2,0.1,0.5,0.2,0.8,0.2s0.6-0.1,0.8-0.2c0.2-0.1,0.4-0.3,0.6-0.4c0.2-0.2,0.3-0.4,0.4-0.7C78.2,55.8,78.2,55.5,78.2,55.3z"/>
	<path class="st1" d="M86.2,55.3c0,0.4-0.1,0.7-0.2,1.1c-0.1,0.3-0.3,0.6-0.6,0.9c-0.2,0.2-0.5,0.4-0.9,0.6
		c-0.3,0.1-0.7,0.2-1.1,0.2s-0.8-0.1-1.1-0.2c-0.3-0.1-0.6-0.3-0.9-0.6c-0.2-0.2-0.4-0.5-0.6-0.9c-0.1-0.3-0.2-0.7-0.2-1.1
		c0-0.4,0.1-0.7,0.2-1.1c0.1-0.3,0.3-0.6,0.6-0.9c0.2-0.2,0.5-0.4,0.9-0.6c0.3-0.1,0.7-0.2,1.1-0.2s0.8,0.1,1.1,0.2
		c0.3,0.1,0.6,0.3,0.9,0.6c0.2,0.2,0.4,0.5,0.6,0.9C86.1,54.5,86.2,54.9,86.2,55.3z M85.4,55.3c0-0.3,0-0.6-0.1-0.8
		c-0.1-0.3-0.2-0.5-0.4-0.7c-0.2-0.2-0.4-0.3-0.6-0.4c-0.2-0.1-0.5-0.2-0.8-0.2s-0.6,0.1-0.8,0.2c-0.2,0.1-0.4,0.3-0.6,0.4
		c-0.2,0.2-0.3,0.4-0.4,0.7s-0.1,0.5-0.1,0.8s0,0.6,0.1,0.8c0.1,0.3,0.2,0.5,0.4,0.7c0.2,0.2,0.4,0.3,0.6,0.4
		c0.2,0.1,0.5,0.2,0.8,0.2s0.6-0.1,0.8-0.2c0.2-0.1,0.4-0.3,0.6-0.4c0.2-0.2,0.3-0.4,0.4-0.7S85.4,55.5,85.4,55.3z"/>
	<path class="st1" d="M89.1,55L89.1,55l2.4-2.3h1.1L90,55l2.8,2.8h-1.1L89.1,55L89.1,55l0,2.8h-0.7v-8.2h0.7
		C89.1,49.6,89.1,55,89.1,55z"/>
	<path class="st1" d="M98.9,55.1c0,0.1,0,0.1,0,0.2c0,0.1,0,0.1,0,0.2h-4.2c0,0.3,0.1,0.5,0.2,0.7s0.2,0.4,0.4,0.6
		c0.2,0.2,0.4,0.3,0.6,0.4c0.2,0.1,0.5,0.1,0.7,0.1c0.4,0,0.7-0.1,1-0.3s0.5-0.4,0.6-0.6l0.6,0.4c-0.3,0.4-0.6,0.7-1,0.8
		c-0.4,0.2-0.8,0.3-1.2,0.3c-0.4,0-0.7-0.1-1.1-0.2c-0.3-0.1-0.6-0.3-0.8-0.6c-0.2-0.2-0.4-0.5-0.6-0.9c-0.1-0.3-0.2-0.7-0.2-1.1
		c0-0.4,0.1-0.7,0.2-1.1c0.1-0.3,0.3-0.6,0.5-0.9c0.2-0.2,0.5-0.4,0.8-0.6c0.3-0.1,0.7-0.2,1-0.2c0.4,0,0.8,0.1,1.1,0.2
		c0.3,0.1,0.6,0.3,0.8,0.5c0.2,0.2,0.4,0.5,0.5,0.8C98.8,54.4,98.9,54.8,98.9,55.1z M98.1,54.9c0-0.5-0.2-0.9-0.5-1.2
		s-0.7-0.5-1.2-0.5c-0.2,0-0.5,0-0.7,0.1s-0.4,0.2-0.6,0.4s-0.3,0.3-0.4,0.5s-0.1,0.4-0.2,0.6h3.6V54.9z"/>
	<path class="st1" d="M104.3,50.1h2.6c0.5,0,1,0.1,1.4,0.2c0.5,0.2,0.9,0.4,1.3,0.7s0.7,0.7,0.9,1.2c0.2,0.5,0.4,1,0.4,1.7
		c0,0.6-0.1,1.2-0.4,1.7c-0.2,0.5-0.6,0.9-0.9,1.2c-0.4,0.3-0.8,0.6-1.3,0.7c-0.5,0.2-1,0.2-1.4,0.2h-2.6V50.1z M105.1,57.1h1.6
		c0.6,0,1.1-0.1,1.5-0.3s0.8-0.4,1.1-0.7c0.3-0.3,0.5-0.6,0.6-1s0.2-0.8,0.2-1.2s-0.1-0.8-0.2-1.2s-0.4-0.7-0.6-1
		c-0.3-0.3-0.6-0.5-1.1-0.7c-0.4-0.2-0.9-0.3-1.5-0.3h-1.6V57.1z"/>
	<path class="st1" d="M118.1,55.3c0,0.4-0.1,0.7-0.2,1.1c-0.1,0.3-0.3,0.6-0.6,0.9c-0.2,0.2-0.5,0.4-0.9,0.6
		c-0.3,0.1-0.7,0.2-1.1,0.2s-0.8-0.1-1.1-0.2c-0.3-0.1-0.6-0.3-0.9-0.6c-0.2-0.2-0.4-0.5-0.6-0.9c-0.1-0.3-0.2-0.7-0.2-1.1
		c0-0.4,0.1-0.7,0.2-1.1c0.1-0.3,0.3-0.6,0.6-0.9c0.2-0.2,0.5-0.4,0.9-0.6c0.3-0.1,0.7-0.2,1.1-0.2s0.8,0.1,1.1,0.2
		c0.3,0.1,0.6,0.3,0.9,0.6c0.2,0.2,0.4,0.5,0.6,0.9C118.1,54.5,118.1,54.9,118.1,55.3z M117.4,55.3c0-0.3,0-0.6-0.1-0.8
		c-0.1-0.3-0.2-0.5-0.4-0.7c-0.2-0.2-0.4-0.3-0.6-0.4c-0.2-0.1-0.5-0.2-0.8-0.2s-0.6,0.1-0.8,0.2c-0.2,0.1-0.4,0.3-0.6,0.4
		c-0.2,0.2-0.3,0.4-0.4,0.7s-0.1,0.5-0.1,0.8s0,0.6,0.1,0.8c0.1,0.3,0.2,0.5,0.4,0.7c0.2,0.2,0.4,0.3,0.6,0.4
		c0.2,0.1,0.5,0.2,0.8,0.2s0.6-0.1,0.8-0.2c0.2-0.1,0.4-0.3,0.6-0.4c0.2-0.2,0.3-0.4,0.4-0.7C117.3,55.8,117.4,55.5,117.4,55.3z"/>
	<path class="st1" d="M125.3,55.3c0,0.4-0.1,0.7-0.2,1.1c-0.1,0.3-0.3,0.6-0.6,0.9c-0.2,0.2-0.5,0.4-0.9,0.6
		c-0.3,0.1-0.7,0.2-1.1,0.2s-0.8-0.1-1.1-0.2c-0.3-0.1-0.6-0.3-0.9-0.6c-0.2-0.2-0.4-0.5-0.6-0.9c-0.1-0.3-0.2-0.7-0.2-1.1
		c0-0.4,0.1-0.7,0.2-1.1c0.1-0.3,0.3-0.6,0.6-0.9c0.2-0.2,0.5-0.4,0.9-0.6c0.3-0.1,0.7-0.2,1.1-0.2s0.8,0.1,1.1,0.2
		c0.3,0.1,0.6,0.3,0.9,0.6c0.2,0.2,0.4,0.5,0.6,0.9C125.3,54.5,125.3,54.9,125.3,55.3z M124.6,55.3c0-0.3,0-0.6-0.1-0.8
		c-0.1-0.3-0.2-0.5-0.4-0.7c-0.2-0.2-0.4-0.3-0.6-0.4c-0.2-0.1-0.5-0.2-0.8-0.2s-0.6,0.1-0.8,0.2c-0.2,0.1-0.4,0.3-0.6,0.4
		c-0.2,0.2-0.3,0.4-0.4,0.7s-0.1,0.5-0.1,0.8s0,0.6,0.1,0.8c0.1,0.3,0.2,0.5,0.4,0.7c0.2,0.2,0.4,0.3,0.6,0.4
		c0.2,0.1,0.5,0.2,0.8,0.2s0.6-0.1,0.8-0.2c0.2-0.1,0.4-0.3,0.6-0.4c0.2-0.2,0.3-0.4,0.4-0.7C124.5,55.8,124.6,55.5,124.6,55.3z"/>
	<path class="st1" d="M127.5,53.3c0-0.2,0-0.4,0-0.6h0.7c0,0.1,0,0.3,0,0.5s0,0.3,0,0.4l0,0c0.1-0.3,0.4-0.5,0.7-0.7s0.6-0.3,1-0.3
		c0.1,0,0.2,0,0.3,0s0.2,0,0.2,0l-0.1,0.7c0,0-0.1,0-0.2,0c-0.1,0-0.2,0-0.3,0c-0.2,0-0.4,0-0.6,0.1c-0.2,0.1-0.3,0.2-0.5,0.3
		c-0.1,0.2-0.2,0.4-0.3,0.6c-0.1,0.2-0.1,0.5-0.1,0.9v2.6h-0.7v-4C127.5,53.7,127.5,53.5,127.5,53.3z"/>
	<path class="st1" d="M134.7,53.9c-0.1-0.2-0.3-0.4-0.5-0.5s-0.5-0.2-0.8-0.2c-0.1,0-0.3,0-0.4,0c-0.1,0-0.2,0.1-0.3,0.1
		c-0.1,0.1-0.2,0.1-0.2,0.3c-0.1,0.1-0.1,0.2-0.1,0.4s0.1,0.4,0.3,0.6c0.2,0.1,0.5,0.2,0.9,0.3c0.6,0.1,1,0.3,1.3,0.5s0.4,0.6,0.4,1
		c0,0.3-0.1,0.5-0.2,0.7c-0.1,0.2-0.3,0.4-0.4,0.5c-0.2,0.1-0.4,0.2-0.6,0.3c-0.2,0.1-0.5,0.1-0.7,0.1c-0.4,0-0.8-0.1-1.1-0.2
		c-0.4-0.2-0.7-0.4-0.9-0.8l0.6-0.4c0.1,0.2,0.3,0.4,0.6,0.6c0.3,0.2,0.5,0.2,0.8,0.2c0.2,0,0.3,0,0.5,0c0.1,0,0.3-0.1,0.4-0.2
		c0.1-0.1,0.2-0.2,0.3-0.3s0.1-0.3,0.1-0.4c0-0.3-0.1-0.5-0.4-0.6c-0.3-0.1-0.6-0.3-1.1-0.4c-0.2,0-0.3-0.1-0.5-0.1
		c-0.2-0.1-0.3-0.1-0.5-0.2c-0.1-0.1-0.3-0.2-0.4-0.4c-0.1-0.2-0.1-0.4-0.1-0.6c0-0.3,0.1-0.5,0.2-0.7c0.1-0.2,0.2-0.3,0.4-0.5
		c0.2-0.1,0.4-0.2,0.6-0.3c0.2-0.1,0.4-0.1,0.7-0.1c0.4,0,0.7,0.1,1,0.2c0.3,0.2,0.6,0.4,0.8,0.7L134.7,53.9z"/>
	<path class="st1" d="M141.4,57.8h-0.8v-7.7h4.7v0.7h-3.9v2.7h3.6v0.7h-3.6V57.8z"/>
	<path class="st1" d="M151.8,55.3c0,0.4-0.1,0.7-0.2,1.1c-0.1,0.3-0.3,0.6-0.6,0.9c-0.2,0.2-0.5,0.4-0.9,0.6
		c-0.3,0.1-0.7,0.2-1.1,0.2c-0.4,0-0.8-0.1-1.1-0.2c-0.3-0.1-0.6-0.3-0.9-0.6c-0.2-0.2-0.4-0.5-0.6-0.9c-0.1-0.3-0.2-0.7-0.2-1.1
		c0-0.4,0.1-0.7,0.2-1.1c0.1-0.3,0.3-0.6,0.6-0.9c0.2-0.2,0.5-0.4,0.9-0.6c0.3-0.1,0.7-0.2,1.1-0.2c0.4,0,0.8,0.1,1.1,0.2
		c0.3,0.1,0.6,0.3,0.9,0.6c0.2,0.2,0.4,0.5,0.6,0.9C151.7,54.5,151.8,54.9,151.8,55.3z M151,55.3c0-0.3,0-0.6-0.1-0.8
		c-0.1-0.3-0.2-0.5-0.4-0.7s-0.4-0.3-0.6-0.4c-0.2-0.1-0.5-0.2-0.8-0.2s-0.6,0.1-0.8,0.2c-0.2,0.1-0.4,0.3-0.6,0.4
		c-0.2,0.2-0.3,0.4-0.4,0.7c-0.1,0.3-0.1,0.5-0.1,0.8s0,0.6,0.1,0.8c0.1,0.3,0.2,0.5,0.4,0.7s0.4,0.3,0.6,0.4
		c0.2,0.1,0.5,0.2,0.8,0.2s0.6-0.1,0.8-0.2c0.2-0.1,0.4-0.3,0.6-0.4c0.2-0.2,0.3-0.4,0.4-0.7C151,55.8,151,55.5,151,55.3z"/>
	<path class="st1" d="M153.9,53.3c0-0.2,0-0.4,0-0.6h0.7c0,0.1,0,0.3,0,0.5s0,0.3,0,0.4l0,0c0.1-0.3,0.4-0.5,0.7-0.7s0.6-0.3,1-0.3
		c0.1,0,0.2,0,0.3,0s0.2,0,0.2,0l-0.1,0.7c0,0-0.1,0-0.2,0s-0.2,0-0.3,0c-0.2,0-0.4,0-0.6,0.1c-0.2,0.1-0.3,0.2-0.5,0.3
		c-0.1,0.2-0.2,0.4-0.3,0.6c-0.1,0.2-0.1,0.5-0.1,0.9v2.6H154v-4C153.9,53.7,153.9,53.5,153.9,53.3z"/>
	<path class="st1" d="M164.1,57.8h-0.8v-3.3l-2.9-4.4h1l2.3,3.7l2.3-3.7h0.9l-2.9,4.4L164.1,57.8L164.1,57.8z"/>
	<path class="st1" d="M172.6,55.3c0,0.4-0.1,0.7-0.2,1.1c-0.1,0.3-0.3,0.6-0.6,0.9c-0.2,0.2-0.5,0.4-0.9,0.6
		c-0.3,0.1-0.7,0.2-1.1,0.2c-0.4,0-0.8-0.1-1.1-0.2c-0.3-0.1-0.6-0.3-0.9-0.6c-0.2-0.2-0.4-0.5-0.6-0.9c-0.1-0.3-0.2-0.7-0.2-1.1
		c0-0.4,0.1-0.7,0.2-1.1c0.1-0.3,0.3-0.6,0.6-0.9c0.2-0.2,0.5-0.4,0.9-0.6c0.3-0.1,0.7-0.2,1.1-0.2c0.4,0,0.8,0.1,1.1,0.2
		c0.3,0.1,0.6,0.3,0.9,0.6c0.2,0.2,0.4,0.5,0.6,0.9C172.5,54.5,172.6,54.9,172.6,55.3z M171.8,55.3c0-0.3,0-0.6-0.1-0.8
		c-0.1-0.3-0.2-0.5-0.4-0.7s-0.4-0.3-0.6-0.4c-0.2-0.1-0.5-0.2-0.8-0.2s-0.6,0.1-0.8,0.2s-0.4,0.3-0.6,0.4c-0.2,0.2-0.3,0.4-0.4,0.7
		c-0.1,0.3-0.1,0.5-0.1,0.8s0,0.6,0.1,0.8c0.1,0.3,0.2,0.5,0.4,0.7s0.4,0.3,0.6,0.4c0.2,0.1,0.5,0.2,0.8,0.2s0.6-0.1,0.8-0.2
		c0.2-0.1,0.4-0.3,0.6-0.4c0.2-0.2,0.3-0.4,0.4-0.7C171.8,55.8,171.8,55.5,171.8,55.3z"/>
	<path class="st1" d="M178.5,57.8c0-0.1,0-0.3,0-0.5s0-0.3,0-0.4l0,0c-0.1,0.3-0.4,0.5-0.7,0.7s-0.7,0.3-1,0.3
		c-0.6,0-1.1-0.2-1.5-0.6c-0.3-0.4-0.5-0.9-0.5-1.5v-3.1h0.7v2.8c0,0.3,0,0.5,0.1,0.7c0,0.2,0.1,0.4,0.2,0.6
		c0.1,0.2,0.2,0.3,0.4,0.4c0.2,0.1,0.4,0.1,0.7,0.1c0.2,0,0.4,0,0.6-0.1s0.4-0.2,0.5-0.4s0.3-0.4,0.3-0.6c0.1-0.3,0.1-0.5,0.1-0.9
		v-2.6h0.7v4c0,0.1,0,0.3,0,0.5s0,0.4,0,0.6H178.5z"/>
	<path class="st1" d="M181.6,53.3c0-0.2,0-0.4,0-0.6h0.7c0,0.1,0,0.3,0,0.5s0,0.3,0,0.4l0,0c0.1-0.3,0.4-0.5,0.7-0.7s0.6-0.3,1-0.3
		c0.1,0,0.2,0,0.3,0s0.2,0,0.2,0l-0.1,0.7c0,0-0.1,0-0.2,0c-0.1,0-0.2,0-0.3,0c-0.2,0-0.4,0-0.6,0.1c-0.2,0.1-0.3,0.2-0.5,0.3
		c-0.1,0.2-0.2,0.4-0.3,0.6c-0.1,0.2-0.1,0.5-0.1,0.9v2.6h-0.7v-4C181.6,53.7,181.6,53.5,181.6,53.3z"/>
	<path class="st1" d="M189.4,50.1h0.8v3.3h4.2v-3.3h0.8v7.7h-0.8v-3.7h-4.2v3.7h-0.8V50.1z"/>
	<path class="st1" d="M202.8,55.3c0,0.4-0.1,0.7-0.2,1.1c-0.1,0.3-0.3,0.6-0.6,0.9c-0.2,0.2-0.5,0.4-0.9,0.6
		c-0.3,0.1-0.7,0.2-1.1,0.2c-0.4,0-0.8-0.1-1.1-0.2c-0.3-0.1-0.6-0.3-0.9-0.6c-0.2-0.2-0.4-0.5-0.6-0.9c-0.1-0.3-0.2-0.7-0.2-1.1
		c0-0.4,0.1-0.7,0.2-1.1c0.1-0.3,0.3-0.6,0.6-0.9c0.2-0.2,0.5-0.4,0.9-0.6c0.3-0.1,0.7-0.2,1.1-0.2c0.4,0,0.8,0.1,1.1,0.2
		c0.3,0.1,0.6,0.3,0.9,0.6c0.2,0.2,0.4,0.5,0.6,0.9C202.7,54.5,202.8,54.9,202.8,55.3z M202,55.3c0-0.3,0-0.6-0.1-0.8
		c-0.1-0.3-0.2-0.5-0.4-0.7s-0.4-0.3-0.6-0.4c-0.2-0.1-0.5-0.2-0.8-0.2s-0.6,0.1-0.8,0.2c-0.2,0.1-0.4,0.3-0.6,0.4
		c-0.2,0.2-0.3,0.4-0.4,0.7c-0.1,0.3-0.1,0.5-0.1,0.8s0,0.6,0.1,0.8c0.1,0.3,0.2,0.5,0.4,0.7s0.4,0.3,0.6,0.4
		c0.2,0.1,0.5,0.2,0.8,0.2s0.6-0.1,0.8-0.2c0.2-0.1,0.4-0.3,0.6-0.4c0.2-0.2,0.3-0.4,0.4-0.7C202,55.8,202,55.5,202,55.3z"/>
	<path class="st1" d="M206.3,52.9c0.3-0.2,0.6-0.3,1-0.3c0.1,0,0.3,0,0.4,0c0.1,0,0.3,0.1,0.4,0.2c0.1,0.1,0.3,0.2,0.4,0.3
		c0.1,0.1,0.2,0.3,0.3,0.5c0.2-0.3,0.4-0.6,0.7-0.8s0.7-0.3,1.1-0.3c0.6,0,1.1,0.2,1.5,0.6c0.3,0.4,0.5,0.9,0.5,1.5v3.1h-0.7V55
		c0-0.5-0.1-1-0.3-1.3s-0.5-0.5-1-0.5c-0.3,0-0.5,0.1-0.7,0.2s-0.3,0.3-0.4,0.4c-0.1,0.2-0.2,0.4-0.2,0.6c-0.1,0.2-0.1,0.5-0.1,0.7
		v2.7h-0.7v-3c0-0.2,0-0.5-0.1-0.7c0-0.2-0.1-0.4-0.2-0.5c-0.1-0.1-0.2-0.3-0.4-0.3c-0.2-0.1-0.4-0.1-0.6-0.1c-0.2,0-0.4,0-0.5,0.1
		c-0.2,0.1-0.3,0.2-0.5,0.4c-0.1,0.2-0.3,0.4-0.3,0.6c-0.1,0.3-0.1,0.5-0.1,0.9v2.6h-0.7v-4c0-0.1,0-0.3,0-0.5s0-0.4,0-0.6h0.7
		c0,0.1,0,0.3,0,0.5s0,0.3,0,0.4l0,0C205.8,53.3,206,53,206.3,52.9z"/>
	<path class="st1" d="M219.7,55.1c0,0.1,0,0.1,0,0.2c0,0.1,0,0.1,0,0.2h-4.2c0,0.3,0.1,0.5,0.2,0.7c0.1,0.2,0.2,0.4,0.4,0.6
		c0.2,0.2,0.4,0.3,0.6,0.4s0.5,0.1,0.7,0.1c0.4,0,0.7-0.1,1-0.3s0.5-0.4,0.6-0.6l0.6,0.4c-0.3,0.4-0.6,0.7-1,0.8
		c-0.4,0.2-0.8,0.3-1.2,0.3s-0.7-0.1-1.1-0.2c-0.3-0.1-0.6-0.3-0.8-0.6c-0.2-0.2-0.4-0.5-0.6-0.9c-0.1-0.3-0.2-0.7-0.2-1.1
		c0-0.4,0.1-0.7,0.2-1.1c0.1-0.3,0.3-0.6,0.5-0.9c0.2-0.2,0.5-0.4,0.8-0.6c0.3-0.1,0.7-0.2,1-0.2c0.4,0,0.8,0.1,1.1,0.2
		c0.3,0.1,0.6,0.3,0.8,0.5s0.4,0.5,0.5,0.8C219.7,54.4,219.7,54.8,219.7,55.1z M219,54.9c0-0.5-0.2-0.9-0.5-1.2s-0.7-0.5-1.2-0.5
		c-0.2,0-0.5,0-0.7,0.1s-0.4,0.2-0.6,0.4c-0.2,0.2-0.3,0.3-0.4,0.5c-0.1,0.2-0.1,0.4-0.2,0.6h3.6V54.9z"/>
</g>
</svg>
