<svg xmlns="http://www.w3.org/2000/svg" viewBox="0 0 273.6 72.6"><path d="M22.2 38.1v6.1h14.4c.3 0 .6-.1.8-.2.2-.2.3-.4.4-.8h.5V49h-.5c-.1-.4-.3-.7-.4-.8-.2-.2-.4-.2-.8-.2H16.2v-.5c.4-.1.7-.3.8-.4.2-.2.2-.4.2-.8V27.2c0-.3-.1-.6-.2-.8-.2-.2-.4-.3-.8-.4v-.5h19.9c.3 0 .6-.1.8-.2.2-.2.3-.4.4-.8h.5v5.8h-.5c-.1-.4-.3-.7-.4-.8-.2-.2-.4-.2-.8-.2h-14v5.3h9.1c.3 0 .6-.1.8-.2.2-.2.3-.4.4-.8h.5v5.7h-.5c-.1-.4-.3-.7-.4-.8-.2-.2-.4-.2-.8-.2h-9zM58.2 38c.9.4 1.6.8 2 1.2.8.8 1.2 1.8 1.2 3.2 0 1.8-.7 3.2-2 4.2-1.2.9-2.9 1.3-5 1.3H41.3v-.5c.4-.1.7-.2.8-.4.2-.2.2-.4.2-.8v-15c0-.3-.1-.6-.2-.8-.2-.2-.4-.3-.8-.4v-.5h12.9c2.3 0 3.9.4 5 1.2 1.1.9 1.7 2 1.7 3.5 0 .9-.2 1.6-.6 2.1-.5.7-1.1 1.2-2.1 1.7zm-11.4-1.6h6.7c1 0 1.8-.1 2.2-.4.4-.3.7-.7.7-1.4 0-.6-.2-1.1-.6-1.4-.4-.3-1.2-.4-2.2-.4h-6.7v3.6zm0 8.2h6.8c2.2 0 3.3-.8 3.3-2.4 0-1.6-1.1-2.4-3.3-2.4h-6.8v4.8z" fill="#fff"/><path d="M74.4 29.1c2.9 0 5.4.7 7.3 2.2 2.3 1.8 3.5 4.3 3.5 7.5 0 3-1.2 5.4-3.5 7.2-1.9 1.5-4.4 2.2-7.3 2.2s-5.3-.7-7.3-2.2c-2.3-1.8-3.5-4.2-3.5-7.3 0-3.1 1.2-5.6 3.5-7.3 2-1.5 4.4-2.2 7.3-2.3zm0 3.5c-1.9 0-3.4.6-4.6 1.8-1.1 1.1-1.7 2.6-1.7 4.3 0 1.7.6 3.1 1.7 4.3 1.2 1.2 2.7 1.8 4.6 1.8 1.9 0 3.4-.6 4.6-1.8 1.1-1.1 1.7-2.5 1.7-4.2 0-1.8-.6-3.3-1.7-4.4-1.1-1.1-2.7-1.8-4.6-1.8zm-3.1-9.5c.6 0 1.1.2 1.6.6.4.4.6.9.6 1.6 0 .6-.2 1.1-.6 1.5-.4.4-.9.6-1.5.6s-1.1-.2-1.5-.6c-.4-.4-.6-.9-.6-1.5s.2-1.1.6-1.5c.3-.4.8-.6 1.4-.7zm6.5 0c.6 0 1.1.2 1.5.6.4.4.6.9.6 1.5s-.2 1.1-.6 1.6c-.4.4-.9.6-1.6.6-.6 0-1.1-.2-1.5-.6-.4-.4-.6-.9-.6-1.5s.2-1.1.6-1.5c.5-.4 1-.6 1.6-.7z" fill="#c69c6d"/><path d="M93.1 35.8v10.4c0 .3.1.6.2.8.2.2.4.3.8.4v.5H88v-.5c.4-.1.7-.2.8-.4.2-.2.2-.4.2-.8v-15c0-.3-.1-.6-.2-.8-.2-.2-.4-.3-.8-.4v-.5h7.1v.5c-.5.1-.7.3-.7.6s.2.6.5.9l9.9 9.8V31.2c0-.3-.1-.6-.2-.8-.2-.2-.4-.3-.8-.4v-.5h6.1v.5c-.4.1-.7.3-.8.4-.2.2-.2.4-.2.8v15c0 .3.1.6.2.8.2.2.4.3.8.5v.5h-6.6v-.5c.5-.1.7-.3.7-.6 0-.2-.1-.3-.2-.5s-.4-.5-.9-1l-9.8-9.6zM124.2 39.8v6.4c0 .3.1.6.2.8.2.2.4.3.8.5v.4h-6.5v-.4c.4-.1.7-.3.8-.4.2-.2.2-.4.2-.8v-6.4l-5.4-7.5c-.6-.8-1.1-1.4-1.5-1.7-.4-.3-.8-.5-1.3-.6v-.5h8.3v.4c-.7.2-1.1.5-1.1 1 0 .2.3.7.8 1.4l2.7 3.7 2.6-3.7c.5-.7.8-1.2.8-1.5 0-.5-.4-.8-1-1v-.5h7.9v.6c-.5.1-.9.3-1.3.6s-.9.9-1.5 1.7l-5.5 7.5zM161.3 38.1h-12.9v8.1c0 .3.1.6.2.8.2.2.4.3.8.4v.5h-7v-.5c.4-.1.7-.3.8-.4.2-.2.2-.4.2-.8v-19c0-.3-.1-.6-.2-.8-.2-.2-.4-.3-.8-.4v-.5h7v.5c-.4.1-.7.2-.8.4-.2.2-.2.4-.2.8v7.2h12.9v-7.2c0-.3-.1-.6-.2-.8-.2-.2-.4-.3-.8-.4v-.5h7v.5c-.4.1-.7.3-.8.4-.2.2-.2.4-.2.8v19c0 .3.1.6.2.8.2.2.4.3.8.4v.5h-7v-.5c.4-.1.7-.2.8-.4.2-.2.2-.4.2-.8v-8.1z" fill="#fff"/><path d="M181.2 29.1c2.9 0 5.4.7 7.3 2.2 2.3 1.8 3.5 4.3 3.5 7.5 0 3-1.2 5.4-3.5 7.2-1.9 1.5-4.4 2.2-7.3 2.2s-5.3-.7-7.3-2.2c-2.3-1.8-3.5-4.2-3.5-7.3 0-3.1 1.2-5.6 3.5-7.3 2-1.5 4.4-2.2 7.3-2.3zm0 3.5c-1.9 0-3.4.6-4.6 1.8-1.1 1.1-1.7 2.6-1.7 4.3 0 1.7.6 3.1 1.7 4.3 1.2 1.2 2.7 1.8 4.6 1.8 1.9 0 3.4-.6 4.6-1.8 1.1-1.1 1.7-2.5 1.7-4.2 0-1.8-.6-3.3-1.7-4.4-1.1-1.1-2.7-1.8-4.6-1.8zm-3.2-9.5c.6 0 1.1.2 1.6.6.4.4.6.9.6 1.6 0 .6-.2 1.1-.6 1.5-.4.4-.9.6-1.5.6s-1.1-.2-1.5-.6c-.4-.4-.6-.9-.6-1.5s.2-1.1.6-1.5c.3-.4.8-.6 1.4-.7zm6.6 0c.6 0 1.1.2 1.5.6.4.4.6.9.6 1.5s-.2 1.1-.6 1.6c-.4.4-.9.6-1.6.6-.6 0-1.1-.2-1.5-.6-.4-.4-.6-.9-.6-1.5s.2-1.1.6-1.5c.5-.4 1-.6 1.6-.7z" fill="#c69c6d"/><path d="M214.1 31.2v9.7c0 2.2-.4 3.8-1.3 4.9-1.4 1.7-4.1 2.5-8 2.5-2.6 0-4.7-.4-6.3-1.2-1.2-.6-2-1.4-2.4-2.5-.4-1-.6-2.2-.6-3.7v-9.7c0-.3-.1-.6-.2-.8-.2-.2-.4-.3-.8-.4v-.5h6.5v.5c-.4.1-.7.3-.8.4-.2.2-.2.4-.2.8V40c0 1 .1 1.8.3 2.4.2.5.5 1 .9 1.3.9.7 2.2 1.1 3.9 1.1 1.7 0 3-.4 3.9-1.1.4-.3.7-.8.9-1.3.2-.5.3-1.3.3-2.4v-8.8c0-.3-.1-.6-.2-.8-.1-.2-.4-.3-.8-.4v-.5h6.1v.5c-.4.1-.7.3-.8.4-.3.2-.4.5-.4.8zM224.8 44.6h9.3c.4 0 .6-.1.8-.2.2-.2.3-.4.4-.8h.4V49h-.4c-.1-.4-.2-.7-.4-.8-.2-.2-.4-.2-.8-.2h-16.5v-1l10.7-14.1h-8.9c-.3 0-.6.1-.8.2-.2.2-.3.4-.4.8h-.4v-5.4h.4c.1.4.3.7.4.8.2.2.4.2.8.2h16.2v.8l-10.8 14.3zM245.2 44.6h9.3c.4 0 .6-.1.8-.2.2-.2.3-.4.4-.8h.4V49h-.4c-.1-.4-.2-.7-.4-.8-.2-.2-.4-.2-.8-.2H238v-1l10.7-14.1h-8.9c-.3 0-.6.1-.8.2-.2.2-.3.4-.4.8h-.4v-5.4h.4c.1.4.3.7.4.8.2.2.4.2.8.2H256v.8l-10.8 14.3z" fill="#fff"/></svg>