<svg xmlns="http://www.w3.org/2000/svg" viewBox="0 0 273.6 72.6"><path d="M34 30.4v6.1h14.2c.3 0 .6-.1.7-.2.2-.2.3-.4.4-.8h.5v5.7h-.5c-.1-.4-.2-.7-.4-.8-.2-.2-.4-.2-.7-.2h-20v-.5c.4-.1.7-.2.8-.4.2-.2.2-.4.2-.8V19.7c0-.3-.1-.6-.2-.8-.2-.2-.4-.3-.8-.4V18h19.7c.3 0 .6-.1.7-.2.2-.2.3-.4.4-.8h.5v5.7H49c-.1-.4-.2-.7-.4-.8-.2-.2-.4-.2-.7-.2H34v5.2h9c.3 0 .6-.1.7-.2.2-.2.3-.4.4-.8h.5v5.6h-.5c-.1-.4-.2-.6-.4-.8-.2-.2-.4-.2-.7-.2h-9zM69.6 30.4c.9.4 1.6.8 2 1.2.8.8 1.2 1.8 1.2 3.1 0 1.8-.7 3.1-2 4.1-1.2.9-2.8 1.3-4.9 1.3H53v-.5c.4-.1.6-.2.8-.4.2-.2.2-.4.2-.8V23.6c0-.3-.1-.6-.2-.8-.2-.2-.4-.3-.8-.4V22h12.7c2.2 0 3.9.4 4.9 1.2 1.1.8 1.7 2 1.7 3.5 0 .9-.2 1.6-.6 2.1-.5.5-1.1 1-2.1 1.6zm-11.3-1.6h6.6c1 0 1.8-.1 2.2-.4.4-.3.6-.7.6-1.4 0-.6-.2-1.1-.6-1.4-.4-.3-1.2-.4-2.2-.4h-6.6v3.6zm0 8H65c2.2 0 3.3-.8 3.3-2.4S67.2 32 65 32h-6.7v4.8z" fill="#374e6b"/><path d="M85.6 21.6c2.9 0 5.3.7 7.2 2.2 2.3 1.8 3.4 4.2 3.4 7.4 0 3-1.2 5.3-3.4 7.1-1.9 1.5-4.3 2.2-7.2 2.2-2.9 0-5.3-.7-7.2-2.2-2.2-1.8-3.4-4.2-3.4-7.3 0-3.1 1.2-5.5 3.5-7.3 1.9-1.3 4.3-2.1 7.1-2.1zm0 3.4c-1.9 0-3.4.6-4.6 1.8-1.1 1.1-1.6 2.5-1.6 4.2 0 1.7.5 3.1 1.6 4.2 1.2 1.2 2.7 1.8 4.6 1.8 1.9 0 3.4-.6 4.6-1.8 1.1-1.1 1.6-2.5 1.6-4.1 0-1.8-.5-3.2-1.6-4.3-1.2-1.2-2.7-1.8-4.6-1.8zm-3.1-9.3c.6 0 1.1.2 1.5.6.4.4.6.9.6 1.5s-.2 1-.6 1.5c-.4.4-.9.6-1.5.6s-1.1-.2-1.5-.6c-.4-.4-.6-.9-.6-1.5s.2-1.1.6-1.5c.4-.4.9-.6 1.5-.6zm6.5 0c.6 0 1.1.2 1.5.6.4.4.6.9.6 1.5s-.2 1.1-.6 1.5c-.4.4-.9.6-1.5.6s-1.1-.2-1.5-.6c-.4-.4-.6-.9-.6-1.5s.2-1.1.6-1.5c.4-.4.9-.6 1.5-.6z" fill="#c69c6d"/><path d="M104 28.2v10.3c0 .3.1.6.2.8.2.2.4.3.8.4v.5h-6v-.5c.4-.1.6-.2.8-.4.2-.2.2-.4.2-.8V23.6c0-.3-.1-.6-.2-.8-.2-.2-.4-.3-.8-.4V22h7v.5c-.5.1-.7.3-.7.6s.2.6.5.9l9.7 9.6v-10c0-.3-.1-.6-.2-.8-.2-.2-.4-.3-.8-.4V22h6v.5c-.4.1-.7.3-.8.4-.2.2-.2.4-.2.8v14.8c0 .3.1.6.2.8.2.2.4.3.8.4v.5H114v-.5c.5-.1.7-.3.7-.6 0-.1-.1-.3-.2-.5s-.4-.5-.9-.9l-9.6-9.5zM134.7 32.2v6.3c0 .3.1.6.2.8.2.2.4.3.8.4v.4h-6.4v-.4c.4-.1.7-.3.8-.4.2-.2.2-.4.2-.8v-6.3l-5.4-7.4c-.6-.8-1.1-1.4-1.4-1.7-.4-.3-.8-.5-1.3-.6V22h8.2v.5c-.7.2-1.1.5-1.1 1 0 .2.3.7.8 1.4l2.6 3.6 2.6-3.6c.5-.7.8-1.2.8-1.4 0-.5-.3-.8-1-1V22h7.8v.5c-.5.1-.9.3-1.3.6s-.8.9-1.4 1.7l-5.5 7.4zM153.8 38.4V19.7c0-.3-.1-.6-.2-.8-.2-.2-.4-.3-.8-.4V18h12.3c2.7 0 4.8.3 6.2.9 2.1.9 3.6 2.4 4.6 4.4.8 1.6 1.2 3.5 1.2 5.7 0 3.8-1.2 6.7-3.5 8.7-1 .8-2.1 1.4-3.4 1.8-1.3.4-3 .5-5 .5h-12.3v-.5c.4-.1.7-.2.8-.4 0-.1.1-.4.1-.7zm4.8-1.9h6.1c1.9 0 3.4-.3 4.4-.8 2.1-1.1 3.1-3.3 3.1-6.6 0-2.4-.6-4.2-1.7-5.5-.6-.7-1.4-1.2-2.3-1.5-.9-.3-2.1-.4-3.5-.4h-6.1v14.8z" fill="#374e6b"/><path d="M190.3 21.6c2.9 0 5.3.7 7.2 2.2 2.3 1.8 3.4 4.2 3.4 7.4 0 3-1.2 5.3-3.4 7.1-1.9 1.5-4.3 2.2-7.2 2.2s-5.3-.7-7.2-2.2c-2.3-1.8-3.5-4.2-3.5-7.3 0-3.1 1.2-5.5 3.5-7.3 2-1.3 4.4-2.1 7.2-2.1zm0 3.4c-1.9 0-3.4.6-4.6 1.8-1.1 1.1-1.6 2.5-1.6 4.2 0 1.7.5 3.1 1.6 4.2 1.2 1.2 2.7 1.8 4.6 1.8 1.9 0 3.4-.6 4.6-1.8 1.1-1.1 1.6-2.5 1.6-4.1 0-1.8-.5-3.2-1.6-4.3-1.2-1.2-2.7-1.8-4.6-1.8zm-3.1-9.3c.6 0 1.1.2 1.5.6.4.4.6.9.6 1.5s-.2 1-.6 1.5c-.4.4-.9.6-1.5.6s-1.1-.2-1.5-.6c-.4-.4-.6-.9-.6-1.5s.2-1.1.6-1.5c.4-.4.9-.6 1.5-.6zm6.5 0c.6 0 1.1.2 1.5.6.4.4.6.9.6 1.5s-.2 1.1-.6 1.5c-.4.4-.9.6-1.5.6s-1.1-.2-1.5-.6c-.4-.4-.6-.9-.6-1.5s.2-1.1.6-1.5c.4-.4.9-.6 1.5-.6z" fill="#c69c6d"/><path d="M209.1 32.7v5.8c0 .3.1.6.2.8.2.2.4.3.8.4v.5h-6.4v-.5c.4-.1.6-.2.8-.4.2-.2.2-.4.2-.8V23.6c0-.3-.1-.6-.2-.8-.2-.2-.4-.3-.8-.4V22h11.9c1.5 0 2.7.1 3.5.2.8.2 1.5.4 2.2.9 1.3.9 2 2.2 2 4.2 0 1.5-.4 2.6-1.2 3.4-.8.8-2.1 1.4-3.9 1.8l3.4 4.8c.6.9 1.1 1.5 1.5 1.8.4.3.8.5 1.3.6v.5h-7.6v-.5c.6-.2.8-.4.8-.7 0-.2-.2-.6-.5-1.1l-3.6-5.2h-4.4zm0-3.3h6.5c1 0 1.7-.1 2.2-.3.7-.3 1-.9 1-1.7 0-.8-.2-1.3-.7-1.6-.5-.3-1.3-.5-2.5-.5h-6.5v4.1zM231.9 32.7v5.8c0 .3.1.6.2.8.2.2.4.3.8.4v.5h-6.4v-.5c.4-.1.6-.2.8-.4.2-.2.2-.4.2-.8V23.6c0-.3-.1-.6-.2-.8-.2-.2-.4-.3-.8-.4V22h11.9c1.5 0 2.7.1 3.5.2.8.2 1.5.4 2.2.9 1.3.9 2 2.2 2 4.2 0 1.5-.4 2.6-1.2 3.4-.8.8-2.1 1.4-3.9 1.8l3.4 4.8c.6.9 1.1 1.5 1.5 1.8.4.3.8.5 1.3.6v.5h-7.6v-.5c.6-.2.8-.4.8-.7 0-.2-.2-.6-.5-1.1l-3.6-5.2h-4.4zm0-3.3h6.5c1 0 1.7-.1 2.2-.3.7-.3 1-.9 1-1.7 0-.8-.2-1.3-.7-1.6-.5-.3-1.3-.5-2.5-.5h-6.5v4.1z" fill="#374e6b"/><g fill="#c69c6d"><path d="M54.1 50.1h2.3c.3 0 .6 0 .9.1.3.1.6.2.8.3.2.1.4.4.6.6.1.3.2.6.2 1s-.1.8-.4 1.1c-.2.3-.6.5-1 .6.5.1.9.3 1.2.6.3.3.5.8.5 1.3 0 .3-.1.6-.2.9-.1.3-.3.5-.6.7-.2.2-.5.3-.9.4-.4.1-.8.2-1.2.2H54v-7.8zm.7 3.4h1.6c.2 0 .4 0 .6-.1.2 0 .4-.1.5-.2.2-.1.3-.2.4-.4.1-.2.1-.4.1-.6 0-.2 0-.5-.1-.6-.1-.2-.2-.3-.4-.4s-.4-.2-.6-.2c-.2 0-.5-.1-.7-.1h-1.4v2.6zm0 3.6h1.5c.3 0 .6 0 .8-.1.3-.1.5-.1.7-.3.2-.1.3-.3.5-.5.1-.2.2-.4.2-.7 0-.5-.2-.9-.5-1.1-.3-.3-.8-.4-1.5-.4h-1.6v3.1zM66.1 55.1v.4h-4.2c0 .3.1.5.2.7s.2.4.4.6c.2.2.4.3.6.4.2.1.5.1.7.1.4 0 .7-.1 1-.3.3-.2.5-.4.6-.6l.6.4c-.3.4-.6.7-1 .8-.4.2-.8.3-1.2.3-.4 0-.7-.1-1.1-.2-.3-.1-.6-.3-.8-.6-.2-.2-.4-.5-.6-.9-.1-.3-.2-.7-.2-1.1 0-.4.1-.7.2-1.1.1-.3.3-.6.5-.9.2-.2.5-.4.8-.6.3-.1.7-.2 1-.2.4 0 .8.1 1.1.2.3.1.6.3.8.5.2.2.4.5.5.8.1.6.1 1 .1 1.3zm-.7-.2c0-.5-.2-.9-.5-1.2-.3-.3-.7-.5-1.2-.5-.2 0-.5 0-.7.1-.2.1-.4.2-.6.4-.2.2-.3.3-.4.5-.1.2-.1.4-.2.6h3.6zM71 53.9c-.1-.2-.3-.4-.5-.5-.2-.1-.5-.2-.8-.2h-.4c-.1 0-.2.1-.3.1-.1.1-.2.1-.2.3-.1.1-.1.2-.1.4s.1.4.3.6c.2.1.5.2.9.3.6.1 1 .3 1.3.5.3.2.4.6.4 1 0 .3-.1.5-.2.7-.1.2-.3.4-.4.5l-.6.3c-.2.1-.5.1-.7.1-.4 0-.8-.1-1.1-.2-.4-.2-.7-.4-.9-.8l.6-.4c.1.2.3.4.6.6.3.2.5.2.8.2h.5c.1 0 .3-.1.4-.2l.3-.3c.1-.1.1-.3.1-.4 0-.3-.1-.5-.4-.6-.3-.1-.6-.3-1.1-.4-.2 0-.3-.1-.5-.1-.2-.1-.3-.1-.5-.2-.1-.1-.3-.2-.4-.4-.1-.2-.1-.4-.1-.6 0-.3.1-.5.2-.7.1-.2.2-.3.4-.5l.6-.3c.2-.1.4-.1.7-.1.4 0 .7.1 1 .2.3.2.6.4.8.7l-.7.4zM74.4 60.4h-.7v-7.7h.7v.9c.2-.3.5-.6.8-.8.4-.2.7-.3 1.1-.3.4 0 .8.1 1.1.2.3.1.6.3.8.6.2.2.4.5.5.9.1.3.2.7.2 1.1 0 .4-.1.7-.2 1.1-.1.3-.3.6-.5.9-.2.2-.5.4-.8.6-.3.1-.7.2-1.1.2-.4 0-.7-.1-1.1-.3-.4-.2-.6-.4-.8-.7v3.3zm3.8-5.1c0-.3 0-.6-.1-.8-.1-.3-.2-.5-.4-.7-.2-.2-.4-.3-.6-.4-.2-.1-.5-.2-.8-.2-.3 0-.5.1-.8.2-.2.1-.4.3-.6.4-.2.2-.3.4-.4.7-.1.3-.1.5-.1.8 0 .3 0 .6.1.8.1.3.2.5.4.6.2.2.4.3.6.4.2.1.5.2.8.2.3 0 .6-.1.8-.2.2-.1.4-.3.6-.4.2-.2.3-.4.4-.7.1-.2.1-.5.1-.7zM86.2 55.3c0 .4-.1.7-.2 1.1-.1.3-.3.6-.6.9-.2.2-.5.4-.9.6-.3.1-.7.2-1.1.2-.4 0-.8-.1-1.1-.2-.3-.1-.6-.3-.9-.6-.2-.2-.4-.5-.6-.9-.1-.3-.2-.7-.2-1.1 0-.4.1-.7.2-1.1.1-.3.3-.6.6-.9.2-.2.5-.4.9-.6.3-.1.7-.2 1.1-.2.4 0 .8.1 1.1.2.3.1.6.3.9.6.2.2.4.5.6.9.1.3.2.7.2 1.1zm-.8 0c0-.3 0-.6-.1-.8-.1-.3-.2-.5-.4-.7-.2-.2-.4-.3-.6-.4-.2-.1-.5-.2-.8-.2-.3 0-.6.1-.8.2-.2.1-.4.3-.6.4-.2.2-.3.4-.4.7-.1.3-.1.5-.1.8s0 .6.1.8c.1.3.2.5.4.7.2.2.4.3.6.4.2.1.5.2.8.2.3 0 .6-.1.8-.2.2-.1.4-.3.6-.4.2-.2.3-.4.4-.7.1-.3.1-.6.1-.8zM89.1 55l2.4-2.3h1.1L90 55l2.8 2.8h-1.1l-2.6-2.7v2.7h-.7v-8.2h.7V55zM98.9 55.1v.4h-4.2c0 .3.1.5.2.7.1.2.2.4.4.6.2.2.4.3.6.4.2.1.5.1.7.1.4 0 .7-.1 1-.3.3-.2.5-.4.6-.6l.6.4c-.3.4-.6.7-1 .8-.4.2-.8.3-1.2.3-.4 0-.7-.1-1.1-.2-.3-.1-.6-.3-.8-.6-.2-.2-.4-.5-.6-.9-.1-.3-.2-.7-.2-1.1 0-.4.1-.7.2-1.1.1-.3.3-.6.5-.9.2-.2.5-.4.8-.6.3-.1.7-.2 1-.2.4 0 .8.1 1.1.2.3.1.6.3.8.5.2.2.4.5.5.8 0 .6.1 1 .1 1.3zm-.8-.2c0-.5-.2-.9-.5-1.2-.3-.3-.7-.5-1.2-.5-.2 0-.5 0-.7.1-.2.1-.4.2-.6.4-.2.2-.3.3-.4.5-.1.2-.1.4-.2.6h3.6zM104.3 50.1h2.6c.5 0 1 .1 1.4.2.5.2.9.4 1.3.7.4.3.7.7.9 1.2.2.5.4 1 .4 1.7 0 .6-.1 1.2-.4 1.7-.2.5-.6.9-.9 1.2-.4.3-.8.6-1.3.7-.5.2-1 .2-1.4.2h-2.6v-7.6zm.8 7h1.6c.6 0 1.1-.1 1.5-.3.4-.2.8-.4 1.1-.7.3-.3.5-.6.6-1 .1-.4.2-.8.2-1.2s-.1-.8-.2-1.2c-.1-.4-.4-.7-.6-1-.3-.3-.6-.5-1.1-.7-.4-.2-.9-.3-1.5-.3h-1.6v6.4zM118.1 55.3c0 .4-.1.7-.2 1.1-.1.3-.3.6-.6.9-.2.2-.5.4-.9.6-.3.1-.7.2-1.1.2-.4 0-.8-.1-1.1-.2-.3-.1-.6-.3-.9-.6-.2-.2-.4-.5-.6-.9-.1-.3-.2-.7-.2-1.1 0-.4.1-.7.2-1.1.1-.3.3-.6.6-.9.2-.2.5-.4.9-.6.3-.1.7-.2 1.1-.2.4 0 .8.1 1.1.2.3.1.6.3.9.6.2.2.4.5.6.9.2.3.2.7.2 1.1zm-.7 0c0-.3 0-.6-.1-.8-.1-.3-.2-.5-.4-.7-.2-.2-.4-.3-.6-.4-.2-.1-.5-.2-.8-.2-.3 0-.6.1-.8.2-.2.1-.4.3-.6.4-.2.2-.3.4-.4.7-.1.3-.1.5-.1.8s0 .6.1.8c.1.3.2.5.4.7.2.2.4.3.6.4.2.1.5.2.8.2.3 0 .6-.1.8-.2.2-.1.4-.3.6-.4.2-.2.3-.4.4-.7 0-.3.1-.6.1-.8zM125.3 55.3c0 .4-.1.7-.2 1.1-.1.3-.3.6-.6.9-.2.2-.5.4-.9.6-.3.1-.7.2-1.1.2-.4 0-.8-.1-1.1-.2-.3-.1-.6-.3-.9-.6-.2-.2-.4-.5-.6-.9-.1-.3-.2-.7-.2-1.1 0-.4.1-.7.2-1.1.1-.3.3-.6.6-.9.2-.2.5-.4.9-.6.3-.1.7-.2 1.1-.2.4 0 .8.1 1.1.2.3.1.6.3.9.6.2.2.4.5.6.9.2.3.2.7.2 1.1zm-.7 0c0-.3 0-.6-.1-.8-.1-.3-.2-.5-.4-.7-.2-.2-.4-.3-.6-.4-.2-.1-.5-.2-.8-.2s-.6.1-.8.2c-.2.1-.4.3-.6.4-.2.2-.3.4-.4.7-.1.3-.1.5-.1.8s0 .6.1.8c.1.3.2.5.4.7.2.2.4.3.6.4.2.1.5.2.8.2s.6-.1.8-.2c.2-.1.4-.3.6-.4.2-.2.3-.4.4-.7 0-.3.1-.6.1-.8zM127.5 53.3v-.6h.7v.9c.1-.3.4-.5.7-.7.3-.2.6-.3 1-.3h.5l-.1.7h-.5c-.2 0-.4 0-.6.1-.2.1-.3.2-.5.3l-.3.6c-.1.2-.1.5-.1.9v2.6h-.7v-4c-.1-.1-.1-.3-.1-.5zM134.7 53.9c-.1-.2-.3-.4-.5-.5-.2-.1-.5-.2-.8-.2h-.4c-.1 0-.2.1-.3.1-.1.1-.2.1-.2.3-.1.1-.1.2-.1.4s.1.4.3.6c.2.1.5.2.9.3.6.1 1 .3 1.3.5.3.2.4.6.4 1 0 .3-.1.5-.2.7-.1.2-.3.4-.4.5l-.6.3c-.2.1-.5.1-.7.1-.4 0-.8-.1-1.1-.2-.4-.2-.7-.4-.9-.8l.6-.4c.1.2.3.4.6.6.3.2.5.2.8.2h.5c.1 0 .3-.1.4-.2l.3-.3c.1-.1.1-.3.1-.4 0-.3-.1-.5-.4-.6-.3-.1-.6-.3-1.1-.4-.2 0-.3-.1-.5-.1-.2-.1-.3-.1-.5-.2-.1-.1-.3-.2-.4-.4-.1-.2-.1-.4-.1-.6 0-.3.1-.5.2-.7.1-.2.2-.3.4-.5l.6-.3c.2-.1.4-.1.7-.1.4 0 .7.1 1 .2.3.2.6.4.8.7l-.7.4zM141.4 57.8h-.8v-7.7h4.7v.7h-3.9v2.7h3.6v.7h-3.6v3.6zM151.8 55.3c0 .4-.1.7-.2 1.1-.1.3-.3.6-.6.9-.2.2-.5.4-.9.6-.3.1-.7.2-1.1.2-.4 0-.8-.1-1.1-.2-.3-.1-.6-.3-.9-.6-.2-.2-.4-.5-.6-.9-.1-.3-.2-.7-.2-1.1 0-.4.1-.7.2-1.1.1-.3.3-.6.6-.9.2-.2.5-.4.9-.6.3-.1.7-.2 1.1-.2.4 0 .8.1 1.1.2.3.1.6.3.9.6.2.2.4.5.6.9.1.3.2.7.2 1.1zm-.8 0c0-.3 0-.6-.1-.8-.1-.3-.2-.5-.4-.7-.2-.2-.4-.3-.6-.4-.2-.1-.5-.2-.8-.2-.3 0-.6.1-.8.2-.2.1-.4.3-.6.4-.2.2-.3.4-.4.7-.1.3-.1.5-.1.8s0 .6.1.8c.1.3.2.5.4.7.2.2.4.3.6.4.2.1.5.2.8.2.3 0 .6-.1.8-.2.2-.1.4-.3.6-.4.2-.2.3-.4.4-.7.1-.3.1-.6.1-.8zM153.9 53.3v-.6h.7v.9c.1-.3.4-.5.7-.7.3-.2.6-.3 1-.3h.5l-.1.7h-.5c-.2 0-.4 0-.6.1-.2.1-.3.2-.5.3l-.3.6c-.1.2-.1.5-.1.9v2.6h-.7v-4c-.1-.1-.1-.3-.1-.5zM164.1 57.8h-.8v-3.3l-2.9-4.4h1l2.3 3.7 2.3-3.7h.9l-2.9 4.4v3.3zM172.6 55.3c0 .4-.1.7-.2 1.1-.1.3-.3.6-.6.9-.2.2-.5.4-.9.6-.3.1-.7.2-1.1.2-.4 0-.8-.1-1.1-.2-.3-.1-.6-.3-.9-.6-.2-.2-.4-.5-.6-.9-.1-.3-.2-.7-.2-1.1 0-.4.1-.7.2-1.1.1-.3.3-.6.6-.9.2-.2.5-.4.9-.6.3-.1.7-.2 1.1-.2.4 0 .8.1 1.1.2.3.1.6.3.9.6.2.2.4.5.6.9.1.3.2.7.2 1.1zm-.8 0c0-.3 0-.6-.1-.8-.1-.3-.2-.5-.4-.7-.2-.2-.4-.3-.6-.4-.2-.1-.5-.2-.8-.2-.3 0-.6.1-.8.2s-.4.3-.6.4c-.2.2-.3.4-.4.7-.1.3-.1.5-.1.8s0 .6.1.8c.1.3.2.5.4.7.2.2.4.3.6.4.2.1.5.2.8.2.3 0 .6-.1.8-.2.2-.1.4-.3.6-.4.2-.2.3-.4.4-.7.1-.3.1-.6.1-.8zM178.5 57.8v-.5-.4c-.1.3-.4.5-.7.7-.3.2-.7.3-1 .3-.6 0-1.1-.2-1.5-.6-.3-.4-.5-.9-.5-1.5v-3.1h.7v2.8c0 .3 0 .5.1.7 0 .2.1.4.2.6.1.2.2.3.4.4.2.1.4.1.7.1.2 0 .4 0 .6-.1s.4-.2.5-.4c.1-.2.3-.4.3-.6.1-.3.1-.5.1-.9v-2.6h.7v5.1h-.6zM181.6 53.3v-.6h.7v.9c.1-.3.4-.5.7-.7.3-.2.6-.3 1-.3h.5l-.1.7h-.5c-.2 0-.4 0-.6.1-.2.1-.3.2-.5.3l-.3.6c-.1.2-.1.5-.1.9v2.6h-.7v-4c-.1-.1-.1-.3-.1-.5zM189.4 50.1h.8v3.3h4.2v-3.3h.8v7.7h-.8v-3.7h-4.2v3.7h-.8v-7.7zM202.8 55.3c0 .4-.1.7-.2 1.1-.1.3-.3.6-.6.9-.2.2-.5.4-.9.6-.3.1-.7.2-1.1.2-.4 0-.8-.1-1.1-.2-.3-.1-.6-.3-.9-.6-.2-.2-.4-.5-.6-.9-.1-.3-.2-.7-.2-1.1 0-.4.1-.7.2-1.1.1-.3.3-.6.6-.9.2-.2.5-.4.9-.6.3-.1.7-.2 1.1-.2.4 0 .8.1 1.1.2.3.1.6.3.9.6.2.2.4.5.6.9.1.3.2.7.2 1.1zm-.8 0c0-.3 0-.6-.1-.8-.1-.3-.2-.5-.4-.7-.2-.2-.4-.3-.6-.4-.2-.1-.5-.2-.8-.2s-.6.1-.8.2c-.2.1-.4.3-.6.4-.2.2-.3.4-.4.7-.1.3-.1.5-.1.8s0 .6.1.8c.1.3.2.5.4.7.2.2.4.3.6.4.2.1.5.2.8.2s.6-.1.8-.2c.2-.1.4-.3.6-.4.2-.2.3-.4.4-.7.1-.3.1-.6.1-.8zM206.3 52.9c.3-.2.6-.3 1-.3h.4c.1 0 .3.1.4.2.1.1.3.2.4.3.1.1.2.3.3.5.2-.3.4-.6.7-.8.3-.2.7-.3 1.1-.3.6 0 1.1.2 1.5.6.3.4.5.9.5 1.5v3.1h-.7V55c0-.5-.1-1-.3-1.3-.2-.3-.5-.5-1-.5-.3 0-.5.1-.7.2s-.3.3-.4.4c-.1.2-.2.4-.2.6-.1.2-.1.5-.1.7v2.7h-.7v-3c0-.2 0-.5-.1-.7 0-.2-.1-.4-.2-.5-.1-.1-.2-.3-.4-.3-.2-.1-.4-.1-.6-.1-.2 0-.4 0-.5.1-.2.1-.3.2-.5.4-.1.2-.3.4-.3.6-.1.3-.1.5-.1.9v2.6h-.7v-4-.5-.6h.7v.9c0-.3.2-.6.5-.7zM219.7 55.1v.4h-4.2c0 .3.1.5.2.7.1.2.2.4.4.6.2.2.4.3.6.4s.5.1.7.1c.4 0 .7-.1 1-.3.3-.2.5-.4.6-.6l.6.4c-.3.4-.6.7-1 .8-.4.2-.8.3-1.2.3-.4 0-.7-.1-1.1-.2-.3-.1-.6-.3-.8-.6-.2-.2-.4-.5-.6-.9-.1-.3-.2-.7-.2-1.1 0-.4.1-.7.2-1.1.1-.3.3-.6.5-.9.2-.2.5-.4.8-.6.3-.1.7-.2 1-.2.4 0 .8.1 1.1.2.3.1.6.3.8.5.2.2.4.5.5.8.1.6.1 1 .1 1.3zm-.7-.2c0-.5-.2-.9-.5-1.2-.3-.3-.7-.5-1.2-.5-.2 0-.5 0-.7.1-.2.1-.4.2-.6.4-.2.2-.3.3-.4.5-.1.2-.1.4-.2.6h3.6z"/></g></svg>