<svg xmlns="http://www.w3.org/2000/svg" width="70" height="48" viewBox="0 -0.141 70 48" overflow="visible"><path fill="#FDFEFF" d="M66 48H4a4 4 0 0 1-4-4V4a4 4 0 0 1 4-4h62a4 4 0 0 1 4 4v40a4 4 0 0 1-4 4"/><path fill="#005197" d="M25.728 32.338l2.835-16.634h4.534L30.26 32.338zm20.977-16.224c-.898-.337-2.307-.699-4.064-.699-4.479 0-7.635 2.256-7.662 5.49-.025 2.39 2.253 3.723 3.973 4.519 1.764.814 2.358 1.335 2.35 2.062-.012 1.115-1.409 1.625-2.713 1.625-1.814 0-2.778-.252-4.268-.873l-.584-.265-.637 3.724c1.06.465 3.018.866 5.051.887 4.766 0 7.859-2.229 7.895-5.683.018-1.892-1.19-3.332-3.807-4.519-1.584-.77-2.555-1.283-2.545-2.062 0-.692.822-1.431 2.598-1.431a8.37 8.37 0 0 1 3.393.637l.406.192.614-3.604m11.626-.394h-3.504c-1.085 0-1.897.296-2.374 1.379L45.72 32.344h4.76s.778-2.051.955-2.5l5.807.006c.135.584.551 2.494.551 2.494H62L58.331 15.72M52.74 26.441c.375-.958 1.806-4.65 1.806-4.65-.026.044.372-.963.603-1.587l.306 1.434 1.05 4.803H52.74zM21.925 15.716l-4.439 11.342-.473-2.305c-.826-2.657-3.401-5.536-6.279-6.978l4.059 14.547 4.797-.005 7.138-16.602h-4.803"/><path fill="#F4A51D" d="M13.369 15.706H6.058L6 16.052c5.688 1.377 9.452 4.704 11.014 8.702l-1.59-7.644c-.274-1.053-1.07-1.367-2.055-1.404"/><path fill="#0A5395" d="M70 10H0V4a4 4 0 0 1 4-4h62a4 4 0 0 1 4 4v6z"/><path fill="#F3A527" d="M0 38h70v6a4 4 0 0 1-4 4H4a4 4 0 0 1-4-4v-6z"/></svg>